# xmcd
#
# Track frame offsets:
#	150
#	11849
#	23218
#	34839
#	49016
#	62380
#	76911
#	87372
#	101444
#	114179
#	127630
#	138582
#	151526
#	163186
#	176785
#	189075
#	198649
#	208785
#	221004
#	232360
#	245206
#	259730
#	271786
#	286102
#
# Disc length: 3979 seconds
#
# Revision: 1
# Processed by: cddbd v1.5.2PL0 Copyright (c) Steve Scherf et al.
# Submitted via: audiograbber 1.83.01
#
DISCID=4b0f8918
DTITLE=ernest tubb - favorites (1956) red and foley (with red foley) (1956)
DYEAR=2012
DGENRE=Country
TTITLE0=walking the floor over you
TTITLE1=i'll always be glad to take you back
TTITLE2=i don't blame you
TTITLE3=soldiers's last letter
TTITLE4=let's say goodbye like we said hello
TTITLE5=seaman's blues
TTITLE6=try me one more time
TTITLE7=rainbow at midnight
TTITLE8=have you ever beed lonely
TTITLE9=filipino baby
TTITLE10=till the end of the world
TTITLE11=slippin' around
TTITLE12=tennessee border
TTITLE13=goodnight irene
TTITLE14=hillbilly fever
TTITLE15=don't be ashamed of your age
TTITLE16=double-datin'
TTITLE17=it's the mileage that's slowin' us down
TTITLE18=no help wanted
TTITLE19=too old to cut the mustard
TTITLE20=kentucky waltz
TTITLE21=i'm in love with molly
TTITLE22=the strange little girl
TTITLE23=you're a real good friend
EXTD=
EXTT0=
EXTT1=
EXTT2=
EXTT3=
EXTT4=
EXTT5=
EXTT6=
EXTT7=
EXTT8=
EXTT9=
EXTT10=
EXTT11=
EXTT12=
EXTT13=
EXTT14=
EXTT15=
EXTT16=
EXTT17=
EXTT18=
EXTT19=
EXTT20=
EXTT21=
EXTT22=
EXTT23=
PLAYORDER=
